<svg width="161" height="30" viewBox="0 0 161 30" fill="none" xmlns="http://www.w3.org/2000/svg">
<path fill-rule="evenodd" clip-rule="evenodd" d="M51.483 3.98426V26.0293H55.9255V8.41668H62.0807C62.9085 8.41668 63.7023 8.74551 64.2877 9.33083C64.873 9.91615 65.2018 10.71 65.2018 11.5378C65.2018 12.3655 64.873 13.1594 64.2877 13.7447C63.7023 14.33 62.9085 14.6589 62.0807 14.6589H55.9255L59.545 19.0913L65.3791 26.0293H71.1697L64.8974 18.5494C66.5263 17.8967 67.8772 16.6972 68.718 15.1569C69.5588 13.6166 69.837 11.8317 69.505 10.1085C69.1729 8.38541 68.2513 6.83166 66.8984 5.7141C65.5454 4.59654 63.8456 3.98492 62.0907 3.98426H51.483ZM86.5878 3.98426H81.5867L73.0631 26.0293H77.8133L79.4859 21.6604L81.202 17.2247L84.0689 9.8083L86.9324 17.2247H83.4333L81.7205 21.6437H88.6652L90.3546 26.0126H95.1115L86.5878 3.96753V3.98426ZM97.0116 8.41668H108.539L97.0116 22.4834V26.0293H115.076V21.5969H103.541L114.34 8.41668V3.98426H97.0116V8.41668ZM118.25 8.41668H129.775L118.234 22.4834V26.0293H136.298V21.5969H124.777L135.579 8.41668V3.98426H118.234V8.41668H118.25ZM138.526 15.0034C138.522 17.1891 139.167 19.3267 140.379 21.1454C141.591 22.9642 143.316 24.3822 145.334 25.2198C147.353 26.0575 149.575 26.277 151.719 25.8506C153.862 25.4242 155.831 24.3711 157.376 22.8246C158.92 21.2782 159.971 19.3081 160.395 17.164C160.819 15.0198 160.596 12.7981 159.756 10.7804C158.916 8.76264 157.496 7.03968 155.676 5.82982C153.856 4.61995 151.717 3.97764 149.532 3.98426C146.611 3.9878 143.812 5.15031 141.749 7.21643C139.685 9.28254 138.526 12.0833 138.526 15.0034ZM149.532 8.41668C150.835 8.41734 152.109 8.80449 153.192 9.52917C154.276 10.2539 155.12 11.2835 155.618 12.488C156.116 13.6924 156.246 15.0175 155.991 16.2957C155.736 17.574 155.108 18.7479 154.186 19.669C153.264 20.5902 152.089 21.2173 150.811 21.4709C149.532 21.7245 148.207 21.5934 147.003 21.094C145.799 20.5946 144.771 19.7494 144.047 18.6653C143.323 17.5812 142.938 16.3068 142.938 15.0034C142.94 13.2559 143.635 11.5806 144.872 10.3455C146.108 9.11043 147.784 8.41668 149.532 8.41668Z" fill="#73706D"/>
<path fill-rule="evenodd" clip-rule="evenodd" d="M14.3109 23.0486C15.6443 25.1728 17.4942 26.9244 19.6879 28.14C21.8816 29.3556 24.3475 29.9955 26.8555 30C30.7838 29.9885 34.5478 28.4227 37.3252 25.6447C40.1026 22.8666 41.6676 19.1022 41.6782 15.174V14.8394C41.6711 10.9088 40.1077 7.141 37.3299 4.36007C34.5521 1.57915 30.7861 0.0114918 26.8555 0C24.3118 0.0054437 21.8121 0.663769 19.5958 1.91195C17.3794 3.16012 15.5205 4.95636 14.1971 7.12868L16.8733 9.80486C26.7351 9.80486 27.1264 9.80486 32.2814 14.9599C27.2134 20.0714 26.9592 20.4694 16.8867 20.4694L14.3109 23.0486Z" fill="#0066FF"/>
<path fill-rule="evenodd" clip-rule="evenodd" d="M11.7886 12.1064L0 15.0001L11.7886 17.8903L14.8729 15.0001L11.7886 12.1064Z" fill="#0066FF"/>
</svg>
