<svg width="12" height="13" viewBox="0 0 12 13" fill="none" xmlns="http://www.w3.org/2000/svg">
<path d="M7.125 7.15985L7.125 11.0089C7.125 11.5755 6.62132 12.0349 6 12.0349C5.37868 12.0349 4.875 11.5755 4.875 11.0089L4.875 7.15985L1.02591 7.15985C0.459314 7.15985 0 6.65617 0 6.03485C0 5.41353 0.459314 4.90985 1.02591 4.90985L4.875 4.90985L4.875 1.06076C4.875 0.494165 5.37868 0.0348511 6 0.0348511C6.62132 0.0348511 7.125 0.494165 7.125 1.06076L7.125 4.90985L10.9741 4.90985C11.5407 4.90985 12 5.41353 12 6.03485C12 6.65617 11.5407 7.15985 10.9741 7.15985L7.125 7.15985Z" fill="#ECEBED"/>
</svg>
